<svg width="1200" height="820" viewBox="0 0 1200 820" fill="none" xmlns="http://www.w3.org/2000/svg">
  <rect width="1200" height="820" rx="40" fill="#EEE3D3"/>
  <circle cx="1018" cy="154" r="116" fill="#C8D7B7"/>
  <circle cx="208" cy="160" r="82" fill="#D89D73" fill-opacity="0.58"/>
  <path d="M0 520C104 454 216 434 330 458C420 476 494 538 582 554C680 572 770 534 866 484C954 438 1064 418 1200 454V820H0V520Z" fill="#708F72"/>
  <path d="M0 586C112 546 214 540 300 560C390 580 454 640 546 656C654 676 742 618 852 586C972 552 1082 584 1200 652V820H0V586Z" fill="#3D5A49"/>
  <rect x="176" y="238" width="196" height="364" rx="26" transform="rotate(-7 176 238)" fill="#C0784F"/>
  <rect x="218" y="260" width="110" height="310" rx="12" fill="#FBF4E8"/>
  <rect x="392" y="222" width="228" height="388" rx="28" transform="rotate(3 392 222)" fill="#335B47"/>
  <rect x="444" y="258" width="118" height="310" rx="14" fill="#FBF4E8"/>
  <rect x="624" y="240" width="238" height="368" rx="28" transform="rotate(-4 624 240)" fill="#22312C"/>
  <rect x="676" y="274" width="132" height="292" rx="14" fill="#FBF4E8"/>
  <rect x="884" y="306" width="118" height="228" rx="20" transform="rotate(8 884 306)" fill="#AFC392"/>
  <rect x="912" y="324" width="58" height="170" rx="8" fill="#FBF4E8"/>
  <rect x="220" y="644" width="760" height="78" rx="39" fill="#F7F1E8" fill-opacity="0.72"/>
  <path d="M258 684C344 644 446 632 542 650C620 664 684 706 772 708C850 710 920 682 996 644" stroke="#24352C" stroke-opacity="0.16" stroke-width="18" stroke-linecap="round"/>
</svg>
