<svg width="1600" height="1100" viewBox="0 0 1600 1100" fill="none" xmlns="http://www.w3.org/2000/svg">
  <rect width="1600" height="1100" rx="56" fill="#F6F1E8"/>
  <rect x="52" y="52" width="1496" height="996" rx="44" fill="#FBF8F2"/>
  <circle cx="1328" cy="180" r="160" fill="#F3D6C8"/>
  <circle cx="248" cy="868" r="196" fill="#DDE5F7"/>
  <circle cx="1248" cy="840" r="132" fill="#DCE8D7"/>
  <rect x="132" y="140" width="626" height="820" rx="38" fill="#FFFFFF" stroke="#E7DED0" stroke-width="2"/>
  <rect x="186" y="196" width="520" height="128" rx="30" fill="#18222C"/>
  <rect x="226" y="234" width="204" height="18" rx="9" fill="#F7F2EB" fill-opacity="0.82"/>
  <rect x="226" y="266" width="286" height="14" rx="7" fill="#D4B6A0"/>
  <rect x="186" y="356" width="252" height="246" rx="28" fill="#E7EEE4"/>
  <rect x="462" y="356" width="190" height="246" rx="28" fill="#F2E8DA"/>
  <path d="M228 546C260 504 306 476 358 464C408 453 456 460 512 492" stroke="#244B3E" stroke-width="18" stroke-linecap="round"/>
  <path d="M236 498C282 548 328 580 384 598" stroke="#244B3E" stroke-width="18" stroke-linecap="round"/>
  <rect x="186" y="650" width="520" height="256" rx="32" fill="#FCFAF5" stroke="#EDE4D7"/>
  <rect x="228" y="698" width="162" height="162" rx="24" fill="#DDB896"/>
  <rect x="270" y="720" width="76" height="116" rx="12" fill="#FFF7EE"/>
  <rect x="412" y="674" width="160" height="188" rx="24" transform="rotate(4 412 674)" fill="#315946"/>
  <rect x="448" y="702" width="78" height="126" rx="12" fill="#FFF7EE"/>
  <rect x="570" y="706" width="94" height="140" rx="20" transform="rotate(-6 570 706)" fill="#A3B98B"/>
  <rect x="592" y="724" width="44" height="104" rx="8" fill="#FFF7EE"/>
  <rect x="822" y="164" width="648" height="232" rx="40" fill="#22313B"/>
  <rect x="872" y="214" width="176" height="20" rx="10" fill="#F6EFE7" fill-opacity="0.9"/>
  <rect x="872" y="248" width="292" height="16" rx="8" fill="#D7B8A0"/>
  <rect x="872" y="304" width="118" height="42" rx="21" fill="#F2B488"/>
  <rect x="1010" y="304" width="118" height="42" rx="21" fill="#3E6E59"/>
  <rect x="1148" y="304" width="146" height="42" rx="21" fill="#889AD0"/>
  <rect x="822" y="438" width="648" height="490" rx="40" fill="#FFFFFF" stroke="#E7DED0" stroke-width="2"/>
  <rect x="874" y="494" width="264" height="172" rx="28" fill="#F3E8D9"/>
  <rect x="1164" y="494" width="248" height="172" rx="28" fill="#E7EEE4"/>
  <rect x="874" y="694" width="538" height="186" rx="30" fill="#FBF8F2" stroke="#EFE4D6"/>
  <path d="M918 756H1228" stroke="#CFD7D1" stroke-width="18" stroke-linecap="round"/>
  <path d="M918 804H1334" stroke="#E5DBCC" stroke-width="16" stroke-linecap="round"/>
  <path d="M972 570C1026 618 1098 614 1160 560" stroke="#244B3E" stroke-width="20" stroke-linecap="round"/>
  <path d="M1222 592L1266 634L1354 548" stroke="#244B3E" stroke-width="20" stroke-linecap="round" stroke-linejoin="round"/>
</svg>
