<svg width="1200" height="900" viewBox="0 0 1200 900" fill="none" xmlns="http://www.w3.org/2000/svg">
  <rect width="1200" height="900" rx="40" fill="#F6F6F2"/>
  <circle cx="892" cy="204" r="150" fill="#E5ECFA"/>
  <circle cx="276" cy="746" r="122" fill="#FFE3DC"/>
  <rect x="130" y="144" width="410" height="560" rx="32" fill="#FFFFFF" stroke="#E6E8E2"/>
  <rect x="188" y="204" width="294" height="34" rx="17" fill="#14161A"/>
  <rect x="188" y="270" width="178" height="18" rx="9" fill="#CDD2D9"/>
  <rect x="188" y="312" width="220" height="18" rx="9" fill="#E3E7EB"/>
  <rect x="188" y="388" width="86" height="132" rx="22" fill="#FFE6DF"/>
  <rect x="294" y="388" width="86" height="132" rx="22" fill="#EEF1EC"/>
  <rect x="400" y="388" width="82" height="132" rx="22" fill="#E6EEFF"/>
  <rect x="640" y="180" width="420" height="500" rx="36" fill="#FFFFFF" stroke="#E6E8E2"/>
  <rect x="700" y="240" width="300" height="210" rx="28" fill="#F0F2EE"/>
  <path d="M738 398C776 350 830 302 896 252" stroke="#FF5A3C" stroke-width="20" stroke-linecap="round"/>
  <path d="M744 304C790 344 838 372 920 402" stroke="#14161A" stroke-width="20" stroke-linecap="round"/>
  <rect x="700" y="494" width="242" height="22" rx="11" fill="#D3D8DE"/>
  <rect x="700" y="538" width="196" height="22" rx="11" fill="#E5E8EC"/>
  <rect x="700" y="590" width="180" height="56" rx="22" fill="#14161A"/>
</svg>
